<svg width="527" height="186" viewBox="0 0 527 186" fill="none" xmlns="http://www.w3.org/2000/svg">
<path d="M45.0896 127.139L37.0584 78.5203H36.5995L28.3388 127.139H12.2764L1.14746 44.7342H16.5215L19.734 68.9848L22.1433 96.2962H22.717L26.962 69.1025L30.5187 44.7342H43.4834L46.9253 69.1025L51.2851 96.2962H51.8588L54.1534 68.9848L57.3659 44.7342H72.7399L61.611 127.139H45.0896ZM104.094 99.9456H91.8175C90.2112 101.986 89.4081 104.537 89.4081 107.597C89.4081 110.658 90.2495 113.052 91.9322 114.778H104.094V99.9456ZM79.4265 66.9835H107.88C112.469 69.8089 115.49 73.0658 116.944 76.7544C118.397 80.3646 119.124 85.3089 119.124 91.5873V109.246C119.124 115.759 119.277 121.724 119.582 127.139H106.503L104.438 122.901C101.455 125.727 97.2481 127.139 91.8175 127.139H84.5894C78.0879 122.744 74.8374 116.427 74.8374 108.186C74.8374 99.8671 78.1644 93.3139 84.8188 88.5266H95.6036C98.5866 88.5266 101.378 89.4684 103.979 91.3519V85.4658C103.979 82.4051 102.679 80.3646 100.078 79.3443H79.4265V66.9835ZM135.875 66.9835H161.231V79.3443H143.333L154.232 95.943C159.127 103.085 161.843 107.99 162.378 110.658C162.684 111.914 162.837 113.209 162.837 114.543C162.837 120.115 160.81 124.314 156.756 127.139H127.5V114.778H148.496L136.219 96.2962C135.684 95.4329 134.843 94.2165 133.695 92.6468C132.624 91.0772 131.783 89.8215 131.171 88.8797C130.559 87.8595 130.139 87.1139 129.909 86.643C129.68 86.1721 129.374 85.5835 128.991 84.8772C128.609 84.0924 128.341 83.4253 128.188 82.8759C127.882 81.3848 127.729 80.1684 127.729 79.2266C127.729 73.4975 130.445 69.4165 135.875 66.9835ZM174.839 100.887V79.3443H166.923V66.9835H174.839V50.6203H190.099V66.9835H199.507V79.3443H190.099V104.654C190.099 109.442 190.902 112.816 192.508 114.778H199.507V127.139H183.215C179.161 123.294 176.713 119.134 175.872 114.661C175.184 110.894 174.839 106.303 174.839 100.887ZM233.668 79.3443H225.064C223.916 80.757 222.96 82.719 222.195 85.2304C221.507 87.7418 221.163 90.1747 221.163 92.5291H237.569C237.722 90.1747 237.416 87.7418 236.651 85.2304C235.887 82.6405 234.892 80.6785 233.668 79.3443ZM249.272 114.778V127.139H220.13C214.776 123.451 210.99 118.899 208.772 113.484C206.63 107.99 205.559 102.457 205.559 96.8848C205.559 84.0139 210.301 74.0468 219.786 66.9835H238.372C243.497 70.8291 246.977 74.9101 248.813 79.2266C250.649 83.543 251.567 87.8987 251.567 92.2937C251.567 96.6886 251.222 100.456 250.534 103.595H221.966C222.195 105.4 222.845 107.48 223.916 109.834C225.064 112.11 226.287 113.758 227.588 114.778H249.272ZM300.569 127.139L292.538 78.5203H292.079L283.818 127.139H267.756L256.627 44.7342H272.001L275.213 68.9848L277.623 96.2962H278.196L282.442 69.1025L285.998 44.7342H298.963L302.405 69.1025L306.765 96.2962H307.338L309.633 68.9848L312.845 44.7342H328.219L317.09 127.139H300.569ZM397.405 100.887V79.3443H389.488V66.9835H397.405V50.6203H412.664V66.9835H422.072V79.3443H412.664V104.654C412.664 109.442 413.467 112.816 415.073 114.778H422.072V127.139H405.78C401.726 123.294 399.279 119.134 398.437 114.661C397.749 110.894 397.405 106.303 397.405 100.887ZM443.958 96.5316C443.958 99.8278 444.455 103.203 445.45 106.656C446.444 110.03 447.821 112.738 449.58 114.778H466.79V127.139H441.664C432.638 119.762 428.125 109.559 428.125 96.5316C428.125 83.5038 432.944 73.6544 442.581 66.9835H466.79V79.3443H449.58C445.832 83.3468 443.958 89.0759 443.958 96.5316ZM502.316 66.9835H513.216C516.581 71.3785 518.876 75.7734 520.099 80.1684C521.323 84.5633 521.935 90.057 521.935 96.6494V127.139H506.676V95.4721C506.676 88.0165 505.681 82.6405 503.693 79.3443H490.843V127.139H475.584V44.7342H490.843V71.2215C492.526 69.6519 494.094 68.5532 495.547 67.9253C497.077 67.2975 499.333 66.9835 502.316 66.9835Z" fill="white"/>
<path d="M26.7207 144.909L21.8186 154.422V160.886H20.8205V154.422L15.874 144.909H17.0053L21.3085 153.466L25.5895 144.909H26.7207ZM34.4181 161.068C33.2942 161.068 32.2812 160.81 31.3792 160.294C30.4771 159.779 29.7673 159.043 29.2498 158.087C28.747 157.116 28.4956 155.985 28.4956 154.696C28.4956 153.421 28.7544 152.306 29.272 151.35C29.7895 150.379 30.4993 149.643 31.4014 149.142C32.3182 148.627 33.3385 148.368 34.4624 148.368C35.5863 148.368 36.5992 148.627 37.5013 149.142C38.4033 149.643 39.1057 150.371 39.6085 151.327C40.126 152.283 40.3849 153.406 40.3849 154.696C40.3849 155.985 40.126 157.116 39.6085 158.087C39.0909 159.043 38.3737 159.779 37.4569 160.294C36.5548 160.81 35.5419 161.068 34.4181 161.068ZM34.4181 160.158C35.2905 160.158 36.1039 159.961 36.858 159.566C37.627 159.156 38.2406 158.542 38.6991 157.723C39.1575 156.903 39.3867 155.894 39.3867 154.696C39.3867 153.512 39.1575 152.511 38.6991 151.691C38.2406 150.872 37.6344 150.265 36.8802 149.87C36.126 149.461 35.3127 149.256 34.4403 149.256C33.5678 149.256 32.7545 149.461 32.0003 149.87C31.2609 150.265 30.662 150.872 30.2036 151.691C29.7451 152.511 29.516 153.512 29.516 154.696C29.516 155.894 29.7378 156.903 30.1814 157.723C30.6398 158.542 31.2387 159.156 31.9781 159.566C32.7323 159.961 33.5456 160.158 34.4181 160.158ZM53.5946 148.528V160.886H52.5964V158.2C52.2563 159.141 51.687 159.862 50.8885 160.363C50.1047 160.848 49.2027 161.091 48.1823 161.091C46.7479 161.091 45.5723 160.644 44.6555 159.748C43.7534 158.838 43.3024 157.495 43.3024 155.72V148.528H44.2784V155.651C44.2784 157.123 44.6407 158.254 45.3653 159.043C46.0899 159.816 47.0733 160.203 48.3154 160.203C49.6167 160.203 50.6518 159.779 51.4208 158.929C52.2045 158.079 52.5964 156.82 52.5964 155.151V148.528H53.5946ZM58.2315 151.077C58.5273 150.166 59.0522 149.476 59.8064 149.006C60.5606 148.52 61.5218 148.277 62.69 148.277V149.347H62.3573C61.1743 149.347 60.1909 149.696 59.4071 150.394C58.6234 151.077 58.2315 152.2 58.2315 153.762V160.886H57.2334V148.528H58.2315V151.077ZM89.3703 144.909L85.0671 160.886H83.9802L79.7213 146.502L75.3963 160.886H74.3538L70.1172 144.909H71.1819L74.9084 159.452L79.189 144.909H80.2981L84.5347 159.543L88.2834 144.909H89.3703ZM91.2274 154.696C91.2274 153.421 91.4714 152.306 91.9594 151.35C92.4619 150.394 93.1495 149.658 94.0222 149.142C94.9095 148.627 95.9153 148.368 97.0389 148.368C98.3109 148.368 99.3901 148.687 100.277 149.324C101.165 149.962 101.786 150.773 102.141 151.76V148.528H103.139V160.886H102.141V157.631C101.786 158.633 101.157 159.46 100.255 160.112C99.368 160.75 98.2956 161.068 97.0389 161.068C95.9153 161.068 94.9095 160.81 94.0222 160.294C93.1495 159.763 92.4619 159.02 91.9594 158.064C91.4714 157.093 91.2274 155.97 91.2274 154.696ZM102.141 154.696C102.141 153.618 101.919 152.67 101.475 151.851C101.046 151.016 100.455 150.379 99.7007 149.939C98.9465 149.484 98.1036 149.256 97.172 149.256C96.196 149.256 95.3386 149.476 94.599 149.916C93.8593 150.341 93.2826 150.963 92.8688 151.782C92.455 152.602 92.2477 153.572 92.2477 154.696C92.2477 155.819 92.455 156.789 92.8688 157.609C93.2826 158.428 93.8593 159.057 94.599 159.498C95.3531 159.938 96.2105 160.158 97.172 160.158C98.1036 160.158 98.9465 159.938 99.7007 159.498C100.469 159.043 101.068 158.405 101.497 157.586C101.926 156.752 102.141 155.788 102.141 154.696ZM110.788 161.068C109.442 161.068 108.341 160.764 107.483 160.158C106.64 159.551 106.167 158.686 106.064 157.563H107.084C107.157 158.368 107.512 159.005 108.149 159.475C108.799 159.945 109.679 160.181 110.788 160.181C111.705 160.181 112.43 159.945 112.962 159.475C113.509 158.989 113.783 158.397 113.783 157.7C113.783 157.214 113.634 156.82 113.339 156.516C113.058 156.198 112.703 155.955 112.274 155.788C111.845 155.621 111.261 155.439 110.522 155.242C109.635 154.999 108.917 154.764 108.371 154.536C107.823 154.294 107.357 153.937 106.973 153.466C106.588 152.996 106.396 152.366 106.396 151.577C106.396 151.001 106.566 150.47 106.907 149.984C107.246 149.484 107.72 149.089 108.326 148.801C108.932 148.513 109.62 148.368 110.389 148.368C111.646 148.368 112.658 148.695 113.428 149.347C114.211 149.984 114.633 150.872 114.692 152.01H113.694C113.65 151.191 113.339 150.523 112.762 150.007C112.186 149.491 111.387 149.233 110.367 149.233C109.509 149.233 108.799 149.461 108.237 149.916C107.675 150.371 107.395 150.925 107.395 151.577C107.395 152.154 107.55 152.624 107.86 152.989C108.185 153.338 108.577 153.611 109.036 153.808C109.509 153.99 110.13 154.187 110.899 154.4C111.742 154.627 112.414 154.855 112.918 155.082C113.435 155.295 113.872 155.614 114.226 156.038C114.581 156.448 114.759 157.002 114.759 157.7C114.759 158.337 114.588 158.914 114.249 159.429C113.908 159.945 113.435 160.348 112.829 160.636C112.222 160.924 111.543 161.068 110.788 161.068ZM119.285 149.415V157.586C119.285 158.496 119.448 159.126 119.773 159.475C120.098 159.809 120.675 159.976 121.503 159.976H122.857V160.886H121.348C120.298 160.886 119.522 160.636 119.019 160.135C118.531 159.619 118.287 158.769 118.287 157.586V149.415H116.468V148.528H118.287V145.387H119.285V148.528H122.857V149.415H119.285ZM136.336 153.876C136.336 154.422 136.321 154.832 136.292 155.105H125.889C125.918 156.213 126.155 157.146 126.598 157.905C127.042 158.664 127.626 159.232 128.351 159.612C129.075 159.991 129.866 160.181 130.724 160.181C131.907 160.181 132.898 159.885 133.696 159.293C134.495 158.686 134.997 157.867 135.205 156.835H136.247C136.01 158.095 135.404 159.119 134.428 159.907C133.452 160.681 132.217 161.068 130.724 161.068C129.6 161.068 128.595 160.81 127.707 160.294C126.82 159.779 126.125 159.043 125.622 158.087C125.119 157.116 124.868 155.985 124.868 154.696C124.868 153.406 125.112 152.283 125.6 151.327C126.103 150.371 126.798 149.643 127.685 149.142C128.572 148.627 129.585 148.368 130.724 148.368C131.878 148.368 132.876 148.627 133.719 149.142C134.576 149.643 135.227 150.318 135.671 151.168C136.114 152.002 136.336 152.905 136.336 153.876ZM135.338 154.263C135.382 153.171 135.189 152.245 134.761 151.486C134.347 150.727 133.777 150.166 133.053 149.802C132.328 149.423 131.545 149.233 130.702 149.233C129.859 149.233 129.075 149.423 128.351 149.802C127.641 150.166 127.056 150.727 126.598 151.486C126.155 152.245 125.918 153.171 125.889 154.263H135.338ZM150.914 161.068C149.79 161.068 148.777 160.81 147.875 160.294C146.973 159.779 146.263 159.043 145.745 158.087C145.243 157.116 144.991 155.985 144.991 154.696C144.991 153.421 145.25 152.306 145.768 151.35C146.285 150.379 146.995 149.643 147.897 149.142C148.814 148.627 149.835 148.368 150.958 148.368C152.082 148.368 153.095 148.627 153.997 149.142C154.899 149.643 155.602 150.371 156.104 151.327C156.622 152.283 156.881 153.406 156.881 154.696C156.881 155.985 156.622 157.116 156.104 158.087C155.586 159.043 154.87 159.779 153.953 160.294C153.051 160.81 152.037 161.068 150.914 161.068ZM150.914 160.158C151.786 160.158 152.6 159.961 153.354 159.566C154.122 159.156 154.737 158.542 155.195 157.723C155.653 156.903 155.882 155.894 155.882 154.696C155.882 153.512 155.653 152.511 155.195 151.691C154.737 150.872 154.13 150.265 153.376 149.87C152.622 149.461 151.809 149.256 150.936 149.256C150.063 149.256 149.25 149.461 148.496 149.87C147.756 150.265 147.157 150.872 146.699 151.691C146.241 152.511 146.012 153.512 146.012 154.696C146.012 155.894 146.233 156.903 146.677 157.723C147.135 158.542 147.734 159.156 148.474 159.566C149.228 159.961 150.041 160.158 150.914 160.158ZM165.344 148.277C166.778 148.277 167.946 148.733 168.849 149.643C169.75 150.538 170.202 151.873 170.202 153.649V160.886H169.226V153.717C169.226 152.245 168.863 151.122 168.139 150.348C167.414 149.56 166.431 149.165 165.189 149.165C163.887 149.165 162.844 149.59 162.061 150.439C161.292 151.289 160.908 152.548 160.908 154.218V160.886H159.909V148.528H160.908V151.145C161.247 150.22 161.809 149.514 162.593 149.028C163.392 148.528 164.308 148.277 165.344 148.277ZM185.29 161.068C184.167 161.068 183.154 160.81 182.252 160.294C181.35 159.779 180.64 159.043 180.122 158.087C179.62 157.116 179.368 155.985 179.368 154.696C179.368 153.421 179.627 152.306 180.144 151.35C180.662 150.379 181.372 149.643 182.274 149.142C183.191 148.627 184.211 148.368 185.335 148.368C186.459 148.368 187.472 148.627 188.374 149.142C189.276 149.643 189.978 150.371 190.481 151.327C190.999 152.283 191.257 153.406 191.257 154.696C191.257 155.985 190.999 157.116 190.481 158.087C189.964 159.043 189.246 159.779 188.329 160.294C187.427 160.81 186.415 161.068 185.29 161.068ZM185.29 160.158C186.163 160.158 186.976 159.961 187.73 159.566C188.5 159.156 189.113 158.542 189.571 157.723C190.03 156.903 190.259 155.894 190.259 154.696C190.259 153.512 190.03 152.511 189.571 151.691C189.113 150.872 188.507 150.265 187.753 149.87C186.998 149.461 186.185 149.256 185.313 149.256C184.441 149.256 183.627 149.461 182.873 149.87C182.134 150.265 181.535 150.872 181.076 151.691C180.618 152.511 180.388 153.512 180.388 154.696C180.388 155.894 180.61 156.903 181.054 157.723C181.513 158.542 182.112 159.156 182.85 159.566C183.605 159.961 184.418 160.158 185.29 160.158ZM204.467 148.528V160.886H203.469V158.2C203.129 159.141 202.56 159.862 201.761 160.363C200.977 160.848 200.075 161.091 199.055 161.091C197.621 161.091 196.445 160.644 195.528 159.748C194.626 158.838 194.175 157.495 194.175 155.72V148.528H195.151V155.651C195.151 157.123 195.514 158.254 196.238 159.043C196.962 159.816 197.946 160.203 199.188 160.203C200.489 160.203 201.525 159.779 202.294 158.929C203.078 158.079 203.469 156.82 203.469 155.151V148.528H204.467ZM209.104 151.077C209.4 150.166 209.925 149.476 210.679 149.006C211.433 148.52 212.395 148.277 213.563 148.277V149.347H213.23C212.047 149.347 211.064 149.696 210.28 150.394C209.496 151.077 209.104 152.2 209.104 153.762V160.886H208.106V148.528H209.104V151.077ZM240.243 144.909L235.94 160.886H234.853L230.594 146.502L226.269 160.886H225.226L220.989 144.909H222.054L225.781 159.452L230.062 144.909H231.171L235.407 159.543L239.156 144.909H240.243ZM242.1 154.696C242.1 153.421 242.344 152.306 242.832 151.35C243.335 150.394 244.022 149.658 244.895 149.142C245.782 148.627 246.788 148.368 247.912 148.368C249.184 148.368 250.263 148.687 251.15 149.324C252.037 149.962 252.658 150.773 253.013 151.76V148.528H254.011V160.886H253.013V157.631C252.658 158.633 252.03 159.46 251.128 160.112C250.241 160.75 249.168 161.068 247.912 161.068C246.788 161.068 245.782 160.81 244.895 160.294C244.022 159.763 243.335 159.02 242.832 158.064C242.344 157.093 242.1 155.97 242.1 154.696ZM253.013 154.696C253.013 153.618 252.792 152.67 252.348 151.851C251.919 151.016 251.328 150.379 250.573 149.939C249.819 149.484 248.976 149.256 248.045 149.256C247.069 149.256 246.211 149.476 245.472 149.916C244.732 150.341 244.155 150.963 243.741 151.782C243.328 152.602 243.12 153.572 243.12 154.696C243.12 155.819 243.328 156.789 243.741 157.609C244.155 158.428 244.732 159.057 245.472 159.498C246.226 159.938 247.083 160.158 248.045 160.158C248.976 160.158 249.819 159.938 250.573 159.498C251.342 159.043 251.941 158.405 252.37 157.586C252.799 156.752 253.013 155.788 253.013 154.696ZM259.132 149.415V157.586C259.132 158.496 259.294 159.126 259.62 159.475C259.945 159.809 260.522 159.976 261.35 159.976H262.704V160.886H261.195C260.145 160.886 259.369 160.636 258.866 160.135C258.378 159.619 258.134 158.769 258.134 157.586V149.415H256.315V148.528H258.134V145.387H259.132V148.528H262.704V149.415H259.132ZM264.714 154.696C264.714 153.406 264.958 152.283 265.446 151.327C265.95 150.371 266.637 149.643 267.509 149.142C268.397 148.627 269.41 148.368 270.548 148.368C272.056 148.368 273.292 148.755 274.252 149.529C275.228 150.303 275.835 151.342 276.071 152.647H275.029C274.837 151.585 274.334 150.75 273.52 150.144C272.722 149.537 271.731 149.233 270.548 149.233C269.661 149.233 268.855 149.438 268.13 149.848C267.406 150.242 266.822 150.857 266.378 151.691C265.95 152.511 265.735 153.512 265.735 154.696C265.735 155.894 265.95 156.903 266.378 157.723C266.822 158.542 267.406 159.156 268.13 159.566C268.855 159.976 269.661 160.181 270.548 160.181C271.731 160.181 272.722 159.877 273.52 159.27C274.334 158.663 274.837 157.828 275.029 156.767H276.071C275.835 158.056 275.228 159.096 274.252 159.885C273.276 160.673 272.042 161.068 270.548 161.068C269.41 161.068 268.397 160.81 267.509 160.294C266.637 159.779 265.95 159.043 265.446 158.087C264.958 157.116 264.714 155.985 264.714 154.696ZM284.569 148.277C285.989 148.277 287.15 148.733 288.052 149.643C288.954 150.538 289.405 151.873 289.405 153.649V160.886H288.429V153.717C288.429 152.245 288.067 151.122 287.342 150.348C286.617 149.56 285.634 149.165 284.392 149.165C283.091 149.165 282.048 149.59 281.264 150.439C280.495 151.289 280.111 152.548 280.111 154.218V160.886H279.112V144.044H280.111V151.145C280.451 150.22 281.02 149.514 281.819 149.028C282.617 148.528 283.534 148.277 284.569 148.277Z" fill="white"/>
<path d="M412.938 140.628C409.927 140.446 407.037 139.35 404.635 137.479C402.232 135.608 400.427 133.047 399.446 130.12C399.154 129.218 398.592 128.433 397.842 127.876C397.091 127.319 396.188 127.018 395.262 127.015C394.336 127.013 393.432 127.309 392.678 127.862C391.925 128.415 391.36 129.197 391.062 130.097C390.085 133.029 388.28 135.596 385.875 137.472C383.471 139.348 380.577 140.446 377.562 140.628C374.552 140.446 371.661 139.35 369.259 137.479C366.857 135.608 365.051 133.047 364.07 130.12C363.771 129.22 363.207 128.437 362.455 127.882C361.703 127.325 360.801 127.023 359.874 127.017C358.949 127.01 358.045 127.304 357.292 127.858C356.54 128.411 355.977 129.195 355.687 130.097C354.71 133.029 352.904 135.596 350.499 137.472C348.095 139.348 345.202 140.446 342.187 140.628C339.176 140.446 336.286 139.35 333.884 137.479C331.481 135.608 329.676 133.047 328.695 130.12C328.396 129.22 327.831 128.437 327.08 127.882C326.328 127.325 325.426 127.023 324.499 127.017C323.57 126.996 322.659 127.284 321.904 127.84C321.149 128.396 320.59 129.188 320.311 130.097C319.334 133.029 317.529 135.596 315.124 137.472C312.72 139.348 309.826 140.446 306.811 140.628H297.967V149.703H306.811C310.243 149.735 313.634 148.934 316.707 147.368C319.78 145.801 322.45 143.512 324.499 140.687C325.783 142.369 327.268 143.878 328.921 145.179C328.921 153.602 332.182 161.68 337.987 167.637C343.792 173.593 351.665 176.939 359.874 176.939C368.084 176.939 375.957 173.593 381.762 167.637C387.567 161.68 390.828 153.602 390.828 145.179C392.48 143.878 393.966 142.369 395.25 140.687C397.298 143.512 399.968 145.801 403.042 147.368C406.115 148.934 409.506 149.735 412.938 149.703H421.782V140.628H412.938ZM359.874 167.851C354.719 167.842 349.728 165.985 345.766 162.6C341.804 159.216 339.119 154.517 338.176 149.317C339.499 149.571 340.841 149.699 342.187 149.703C345.619 149.735 349.009 148.934 352.083 147.368C355.156 145.801 357.826 143.512 359.874 140.687C361.923 143.512 364.593 145.801 367.666 147.368C370.739 148.934 374.13 149.735 377.562 149.703C378.909 149.699 380.253 149.571 381.577 149.317C380.634 154.518 377.948 159.218 373.985 162.602C370.022 165.987 365.03 167.843 359.874 167.851Z" fill="white"/>
<path d="M377.872 76.359C377.679 74.0937 376.668 71.984 375.038 70.4438C373.408 68.9036 371.275 68.0438 369.059 68.0332H364.297V49.8845H355.453V68.0332H350.668C348.496 68.0293 346.4 68.8474 344.779 70.3308C343.159 71.8143 342.129 73.8589 341.886 76.0731L334.581 127.017H343.522L346.768 104.331H372.95L376.2 127.017H385.137L377.872 76.359ZM348.068 95.2563L350.668 77.1076L369.095 77.3934L371.65 95.2563H348.068Z" fill="white"/>
</svg>
